<svg version="1.1" id="Layer_1" xmlns="http://www.w3.org/2000/svg" xmlns:xlink="http://www.w3.org/1999/xlink" x="0px" y="0px"
	 width="100%" viewBox="0 0 912 944" enable-background="new 0 0 912 944" xml:space="preserve">
<path fill="#000000" opacity="1.000000" stroke="none" 
	d="
M663.583740,617.395752 
	C676.810852,630.113831 693.473694,632.273804 710.207703,634.781982 
	C740.196228,639.276855 768.828796,647.838989 793.056335,667.017700 
	C815.799683,685.021667 832.927185,707.049622 839.769287,735.990479 
	C842.923218,749.331116 838.724304,761.669617 835.083496,774.088257 
	C833.975769,777.866394 831.621338,776.492188 829.317688,774.824036 
	C810.831970,761.437927 791.707703,748.852295 773.939758,734.576843 
	C751.425598,716.488037 733.709961,723.410400 715.296387,738.521729 
	C702.898376,748.696350 696.610962,762.525513 691.406799,777.087830 
	C691.126770,777.871399 691.000305,778.738525 690.589294,779.442322 
	C684.329651,790.161560 688.714478,798.363647 696.519226,806.046570 
	C709.423157,818.749084 724.446106,828.681335 739.036133,839.197510 
	C745.116150,843.579773 751.128540,848.065735 757.008789,852.710754 
	C759.604248,854.760986 762.029175,857.133362 764.115051,859.698181 
	C767.550171,863.922058 766.904846,866.348022 761.866760,868.423340 
	C750.286987,873.193237 738.342896,876.833923 725.961914,878.788696 
	C700.904907,882.744934 676.744385,880.426025 654.498596,867.242981 
	C634.502808,855.393372 620.620544,837.962524 610.470581,817.362488 
	C599.532410,795.162781 593.657776,771.522766 590.605103,747.070129 
	C589.328308,736.842712 587.975891,726.602417 585.547607,716.570740 
	C583.880066,709.681702 580.081238,703.711304 576.354675,697.797058 
	C558.904602,670.102539 538.409729,644.666260 517.811951,619.318359 
	C475.017426,566.654907 429.858002,516.067749 382.889618,467.117615 
	C346.545380,429.239929 309.722504,391.808960 268.105591,359.536438 
	C263.108704,355.661530 257.758942,352.243683 252.601974,348.572876 
	C240.751785,340.137726 227.098343,337.388062 213.020844,336.389160 
	C195.884247,335.173157 179.008240,332.336517 162.263367,328.729340 
	C144.547165,324.912933 131.105850,313.813751 119.037720,301.234406 
	C94.721855,275.888489 75.928787,246.669510 60.731384,215.089020 
	C58.771450,211.016220 57.382420,206.774750 57.634098,202.110352 
	C57.938343,196.471619 60.798618,193.603073 66.495163,193.669785 
	C71.648003,193.730118 76.213173,195.896149 80.674248,198.109924 
	C102.574928,208.977966 122.675735,222.704590 141.460022,238.207275 
	C148.093796,243.682129 155.054199,246.105469 163.167007,246.560883 
	C173.098831,247.118423 182.742081,245.622101 192.092972,242.231766 
	C199.029846,239.716721 204.565781,235.432953 208.988571,229.496613 
	C219.734283,215.073563 225.259567,198.622162 227.468765,181.048248 
	C228.515121,172.724503 225.026642,165.664047 218.162735,160.656448 
	C202.746857,149.409714 185.685822,141.027023 168.622833,132.695709 
	C160.995087,128.971313 153.087936,125.823654 145.367172,122.284271 
	C133.389038,116.793205 125.863075,101.711975 128.530975,89.116539 
	C129.648911,83.838692 132.455383,80.139572 137.257660,77.678162 
	C155.314819,68.422890 174.462631,64.604454 194.688110,65.561905 
	C234.059341,67.425674 267.082886,83.145195 294.177948,111.409576 
	C315.103760,133.238464 327.001923,159.435287 331.552643,189.354248 
	C334.425385,208.241196 332.513916,226.905762 330.801636,245.583374 
	C330.134460,252.860718 331.617035,259.082123 334.824036,265.202026 
	C342.904297,280.621643 353.257599,294.536987 363.939972,308.182434 
	C403.115906,358.224884 446.020660,404.992737 489.687439,451.093872 
	C523.727417,487.031555 558.493958,522.243408 594.360596,556.356506 
	C616.576599,577.486389 639.069641,598.321716 663.583740,617.395752 
M101.928856,272.568756 
	C108.366936,279.407532 115.677422,285.121002 123.707771,290.006134 
	C156.560120,309.991272 190.120056,311.602325 224.484406,294.143616 
	C243.544418,284.460236 260.061249,271.350067 275.212158,256.413849 
	C279.239532,252.443573 282.866913,247.994324 288.089264,245.468155 
	C290.148376,244.472137 292.432465,243.158081 294.566345,245.214020 
	C296.573761,247.148117 297.641998,249.473083 296.852020,252.432602 
	C295.541504,257.342316 293.318390,261.784515 290.185211,265.743958 
	C281.365662,276.889435 271.311432,286.824371 260.440308,295.962128 
	C253.718018,301.612579 246.309738,306.304901 238.301620,311.190674 
	C242.848267,314.633179 246.981140,317.125916 251.416916,318.959839 
	C260.073792,322.539001 267.217316,328.068542 273.566437,334.850739 
	C284.155945,346.162567 294.783691,357.441406 305.554535,368.580231 
	C362.308533,427.273560 419.482086,485.569000 473.970825,546.406921 
	C501.987854,577.688538 529.618469,609.298584 554.649780,643.069580 
	C573.383057,668.343689 590.979309,694.164429 596.004761,726.319946 
	C596.985596,732.595886 598.150574,738.978271 600.905334,746.201477 
	C626.296204,712.924377 657.763306,688.218506 694.315369,668.361694 
	C692.465820,667.811401 691.846924,667.509949 691.208618,667.460876 
	C689.715759,667.346008 688.187073,667.149414 686.719299,667.341187 
	C673.445435,669.074707 662.906433,663.783875 653.064209,655.375000 
	C637.461121,642.044250 622.604675,627.940247 608.085999,613.477234 
	C562.504944,568.070862 518.648132,521.012207 475.076782,473.695709 
	C429.701233,424.419952 384.728546,374.773438 339.489532,325.371643 
	C325.536438,310.134613 311.286926,295.169006 297.174500,280.077881 
	C292.771057,275.369049 292.821808,273.993622 297.871246,270.353821 
	C300.287384,268.612213 301.675079,266.298035 302.797333,263.621887 
	C304.888733,258.634674 306.844604,258.182373 310.291595,262.050446 
	C320.266205,273.243683 330.103333,284.559265 340.019714,295.804504 
	C346.535889,303.193848 353.095917,310.544525 359.636292,317.912506 
	C355.957367,311.901215 351.650879,306.425110 347.524109,300.816772 
	C338.144684,288.070099 327.723969,276.104767 319.059753,262.821960 
	C315.778168,257.791046 315.010803,252.333481 316.214050,246.550201 
	C316.789581,243.783920 317.429871,241.021225 318.232391,238.313675 
	C323.968536,218.960922 324.964050,199.677994 317.260040,180.582779 
	C299.561249,136.714478 268.297638,106.551506 224.214127,89.922501 
	C197.093735,79.692245 169.531357,79.522026 142.022217,89.011482 
	C139.110123,90.016029 136.313171,91.038078 136.708191,94.901886 
	C138.474854,96.188652 140.045883,95.307625 141.630203,94.943130 
	C158.385681,91.088234 175.342316,90.381775 192.247147,93.126373 
	C226.351685,98.663445 257.006805,112.139030 283.219482,134.889542 
	C296.160553,146.121338 305.880493,159.743561 310.608368,176.461792 
	C317.350250,200.301773 311.512360,222.201477 299.950897,243.146042 
	C299.559235,243.855545 298.930328,244.485123 297.730377,244.331329 
	C293.568298,242.058029 294.880066,239.022644 296.539398,235.601715 
	C307.756287,212.476746 308.044647,189.099976 295.929413,166.461456 
	C276.317627,129.815002 244.134384,111.353546 203.940948,105.330574 
	C189.268997,103.131996 174.432709,102.725342 159.672882,101.493080 
	C152.298141,100.877396 144.885925,100.710464 137.353577,100.333694 
	C137.521851,101.211639 137.475494,101.682411 137.656235,101.797966 
	C138.908432,102.598534 140.175949,103.387337 141.496979,104.066223 
	C160.162094,113.658440 179.171829,122.704170 195.893051,135.589752 
	C208.847839,145.572891 221.112579,156.339401 230.551804,169.932205 
	C235.109222,176.495056 237.428329,183.549210 236.134155,191.593063 
	C234.408630,202.317673 231.790070,212.814682 227.309326,222.724869 
	C212.407578,255.683578 185.957581,271.701996 149.109543,264.430664 
	C124.020660,259.479767 102.224495,247.713287 82.613045,231.601196 
	C80.431419,229.808853 78.332008,227.916458 75.283295,225.283554 
	C80.738564,241.933487 91.599991,261.105011 101.928856,272.568756 
M705.017578,736.549744 
	C710.922791,729.742126 717.180542,723.298523 724.264526,717.689392 
	C729.394470,713.627380 735.153992,711.029114 741.731628,711.299072 
	C758.277100,711.978333 774.033081,715.396301 787.978699,725.069214 
	C799.088867,732.775391 809.413452,741.453186 819.855225,749.998291 
	C821.433105,751.289551 822.858093,753.082397 825.445312,752.918701 
	C826.362854,745.137146 825.030029,737.752930 823.628479,730.428467 
	C817.112976,696.378052 798.939636,671.782654 765.275269,660.604858 
	C748.684753,655.096191 731.604065,651.076721 713.953430,651.091187 
	C696.711792,651.105286 681.445618,646.208801 667.361816,636.021912 
	C651.533447,624.573120 636.079895,612.712585 621.907104,599.310181 
	C593.943176,572.866272 566.306580,546.076599 538.457336,519.510986 
	C533.103577,514.403992 527.395447,509.668427 521.850830,504.761505 
	C546.887207,535.049683 573.280212,563.950867 600.315674,592.261780 
	C616.662354,609.379578 633.506348,625.986084 651.995605,640.842834 
	C662.416504,649.216431 673.441650,655.942139 687.337585,656.709534 
	C700.292542,657.424927 713.207397,658.886414 726.164062,659.546631 
	C754.622131,660.996643 777.680542,673.962341 798.137695,692.658630 
	C799.249695,693.674866 801.014099,694.475830 800.614136,696.632019 
	C798.431946,697.157288 797.235535,695.484558 795.807800,694.539001 
	C791.086914,691.412720 786.482483,688.110168 781.751404,684.999878 
	C760.977417,671.342957 738.774048,666.477417 715.380737,676.845947 
	C689.887207,688.145264 665.524292,701.619019 644.745667,720.644775 
	C621.281372,742.129822 608.643982,767.529785 615.273682,800.353882 
	C619.466064,821.110657 627.677002,839.658264 646.164001,850.822937 
	C678.836609,870.554382 714.237610,876.651306 751.740784,867.619995 
	C754.294067,867.005127 757.098450,866.400757 759.024780,864.019531 
	C755.788086,862.343994 752.910095,861.021240 750.195190,859.421692 
	C731.355286,848.321838 713.903564,835.227417 696.398254,822.182190 
	C682.994324,812.193298 679.695740,798.983704 682.180115,783.278015 
	C684.981201,765.570007 693.549500,750.765991 705.017578,736.549744 
M222.861130,320.987610 
	C227.484787,322.162964 231.870728,324.428040 237.298004,324.722870 
	C230.388489,314.450165 226.389816,313.465515 220.350342,320.152161 
	C221.021591,320.386566 221.620239,320.595642 222.861130,320.987610 
z"/>
<path fill="#000000" opacity="1.000000" stroke="none" 
	d="
M75.170998,734.176758 
	C112.492859,694.628235 152.509872,658.324585 190.923447,620.389404 
	C234.090012,577.760498 276.574646,534.478088 317.480988,489.665924 
	C320.273132,486.607208 322.726532,483.886536 327.601318,485.559296 
	C330.507111,486.556396 333.522552,485.017059 336.159973,483.545715 
	C344.355072,478.973907 351.730072,473.290253 358.405975,466.703339 
	C359.956726,465.173248 361.314728,463.489044 360.964264,459.858765 
	C370.910583,466.898590 377.147644,475.629913 384.332031,484.169556 
	C377.464813,478.231903 373.666931,484.094421 369.360352,487.327148 
	C363.808746,491.494354 357.669647,494.933319 353.025024,499.747101 
	C353.057739,501.382294 353.838043,502.050201 354.543915,502.740601 
	C369.436981,517.306458 384.401215,531.795166 400.574890,544.964661 
	C401.349579,545.595459 402.143921,546.205566 402.959564,546.782288 
	C408.635345,550.795532 408.954987,550.745544 413.241547,545.187195 
	C415.581818,542.152588 417.844147,539.055054 420.259827,536.082031 
	C422.956696,532.762939 424.916321,529.435913 422.105896,524.862244 
	C424.555847,527.119629 427.144257,529.246033 429.429169,531.659668 
	C435.697845,538.281616 440.974030,545.802612 447.700317,552.011780 
	C450.336029,554.444885 450.322845,556.533264 447.755493,559.130859 
	C445.429016,561.484802 443.773438,564.496704 441.475281,566.884827 
	C436.691803,571.855713 433.678955,576.140808 437.581696,583.994690 
	C440.855133,590.582214 437.672485,597.866882 432.423798,603.649841 
	C409.692047,628.695374 387.454041,654.164124 366.080261,680.394348 
	C339.217377,713.360901 314.005280,747.542297 290.426514,782.903381 
	C269.988068,813.555115 247.627121,842.825195 226.556213,873.020935 
	C216.926895,886.820251 204.416031,897.610046 187.068283,900.765503 
	C171.900253,903.524414 157.471359,900.273254 143.971817,893.503479 
	C112.888535,877.915955 86.416252,856.346191 63.705414,830.097351 
	C60.327148,826.192871 57.301155,821.978210 53.849220,818.143738 
	C38.912231,801.551331 41.167633,775.117188 53.586643,758.919250 
	C60.182438,750.316467 67.622604,742.428589 75.170998,734.176758 
M325.377411,601.903992 
	C319.592377,606.402710 313.852814,610.961426 308.014771,615.390259 
	C273.920258,641.255066 238.591507,665.549988 206.891953,694.464294 
	C189.983551,709.886841 174.037369,726.179443 162.818268,746.458435 
	C143.618393,781.162964 153.412506,810.909119 184.340500,833.544922 
	C194.437592,840.934814 203.235657,840.242859 213.238419,832.601013 
	C218.423233,828.639832 222.847961,823.862061 227.094315,818.932312 
	C236.989197,807.445312 246.956131,796.018372 256.715973,784.417358 
	C301.234772,731.500305 344.991699,677.977295 385.082520,621.571350 
	C393.093018,610.300964 400.789795,598.809937 407.224457,586.531738 
	C408.367279,584.351074 409.220856,582.403809 406.604980,580.459473 
	C395.073639,571.888733 385.181610,561.449524 374.397003,552.025146 
	C373.232880,551.007874 372.222961,549.376160 369.842651,550.105896 
	C367.922363,558.818054 362.961945,565.997803 357.182037,572.781799 
	C347.935638,583.634583 336.855682,592.451538 325.377411,601.903992 
M164.230804,666.730530 
	C139.967194,691.473450 115.386108,715.927734 93.777100,743.113281 
	C88.074936,750.286926 82.470932,757.574646 79.979378,766.660156 
	C77.519447,775.630432 82.484955,781.175476 91.648186,779.570007 
	C96.400963,778.737305 100.174538,776.186584 103.634666,772.837585 
	C124.131851,752.998291 143.080566,731.720032 161.859665,710.291138 
	C185.475021,683.343567 208.628830,656.006042 229.596466,626.908875 
	C236.024185,617.989014 242.252457,608.893494 246.806549,598.826111 
	C248.299713,595.525269 250.184219,592.082458 248.361771,587.293823 
	C219.408585,613.137329 192.058502,639.672058 164.230804,666.730530 
M151.182053,829.372009 
	C149.338943,828.240356 147.436005,827.194824 145.662567,825.962830 
	C134.904663,818.489502 123.080925,811.941406 120.368637,797.340393 
	C120.332581,797.146362 119.844864,797.036255 119.177788,796.676575 
	C116.690384,798.881409 114.070854,801.157959 111.503983,803.492371 
	C109.298225,805.498291 109.065788,807.390381 111.229767,809.872314 
	C116.912437,816.389893 122.191750,823.260071 127.897415,829.756409 
	C137.001038,840.121582 144.894699,851.577209 155.464096,860.626892 
	C162.384125,866.552063 170.112106,870.398132 179.550690,869.645874 
	C184.736847,869.232605 187.026260,865.994446 187.958069,861.264893 
	C188.837906,856.799194 190.016861,852.620972 184.724136,849.574707 
	C173.624252,843.186157 162.758423,836.390930 151.182053,829.372009 
M129.877731,874.187805 
	C122.400734,863.792114 114.949806,853.377563 107.440765,843.005066 
	C95.254959,826.172180 84.161743,808.523926 70.348541,792.904907 
	C65.851105,787.819519 62.652729,787.421631 57.782436,790.726685 
	C53.147274,793.872192 51.641285,799.191040 54.419353,804.323303 
	C56.064499,807.362549 58.226448,810.189453 60.506187,812.806885 
	C75.295471,829.787109 91.709862,845.061951 109.311783,859.091553 
	C116.725349,865.000427 123.975021,871.114929 131.299179,877.135986 
	C131.429230,876.985779 131.559265,876.835510 131.689301,876.685303 
	C131.210373,876.012695 130.731461,875.340088 129.877731,874.187805 
M436.799133,546.083130 
	C435.357391,544.693298 433.821320,543.704712 432.128571,545.645020 
	C427.639099,550.790894 423.336334,556.147705 420.011169,562.078125 
	C417.969635,565.719238 422.151672,567.086975 424.242157,568.829529 
	C426.434174,570.656799 427.457550,568.405029 428.381531,566.906799 
	C431.174988,562.377380 433.896973,557.803589 436.614990,553.228210 
	C437.849335,551.150269 438.583893,548.986511 436.799133,546.083130 
z"/>
<path fill="#000000" opacity="1.000000" stroke="none" 
	d="
M501.836060,131.053802 
	C479.093475,132.619308 456.969147,135.279007 435.109375,139.939224 
	C425.858459,141.911407 419.973145,138.694946 416.887878,129.674423 
	C412.680847,117.374023 416.212921,106.351562 423.262268,96.214287 
	C430.129425,86.338943 439.877899,79.978966 450.681458,75.178238 
	C468.832825,67.112404 488.026550,63.461788 507.699554,61.538498 
	C550.922852,57.312870 593.393616,61.621120 635.421387,71.920914 
	C667.273315,79.726913 694.143677,96.615601 718.946289,117.335526 
	C738.784180,133.907944 757.941467,151.208282 775.250000,170.459839 
	C780.155090,175.915558 784.697205,181.650757 788.529175,187.944641 
	C791.920044,193.514084 792.800415,199.352646 789.518250,204.998352 
	C784.845642,213.036041 786.903198,219.358521 792.360168,226.226486 
	C801.419312,237.628143 812.852051,243.367920 827.233826,243.670578 
	C828.399963,243.695129 829.593262,243.864120 830.729065,243.683594 
	C849.226562,240.743500 863.195984,249.418015 876.002747,261.194641 
	C879.435486,264.351135 882.759155,267.739349 886.610046,270.304932 
	C895.382690,276.149536 896.247498,284.422729 894.690308,293.669800 
	C893.103088,303.095093 888.684875,311.356262 883.409058,319.063080 
	C865.857727,344.701599 844.150146,366.013947 816.990784,381.461792 
	C814.828918,382.691406 812.471191,383.572754 810.226685,384.661713 
	C804.263855,387.554688 798.646118,386.856903 793.216736,383.219482 
	C782.551208,376.073944 773.579590,367.267761 766.884705,356.273895 
	C763.790283,351.192291 762.349243,345.710510 762.685425,339.610474 
	C763.300354,328.451599 763.074402,317.345520 759.762207,306.459930 
	C753.547913,286.035980 736.563049,275.279266 715.342163,277.743042 
	C696.263672,279.958099 679.607666,287.822266 663.750916,297.965668 
	C657.701416,301.835419 652.124146,307.834717 644.051392,301.024017 
	C643.159302,305.131744 644.119202,308.222809 645.156677,311.037964 
	C647.223572,316.646210 645.382324,320.822540 641.839355,325.137909 
	C630.823181,338.555878 618.723572,350.955353 606.484558,363.214813 
	C575.629150,394.121582 545.168335,425.376953 518.788086,460.312927 
	C516.461426,463.394196 514.762878,463.586945 512.215393,460.702759 
	C508.577576,456.584167 504.825012,452.544250 500.854370,448.750183 
	C498.137909,446.154510 497.976868,444.378052 500.615479,441.382202 
	C522.527161,416.504395 544.698425,391.848022 565.882874,366.339325 
	C575.036011,355.317871 583.909424,344.064117 593.061218,333.041565 
	C595.549500,330.044647 595.904724,327.832764 593.474365,324.352753 
	C585.748474,313.289978 581.988464,300.401154 577.740173,287.778412 
	C574.341370,277.679474 571.068420,267.538147 567.669556,257.439209 
	C567.001343,255.453659 566.409424,253.333099 564.422607,251.740356 
	C532.272095,303.998871 493.320129,350.820831 455.774902,398.559631 
	C448.500885,394.871338 448.035736,392.837891 452.650421,387.452484 
	C477.810944,358.089722 501.649292,327.681824 524.462097,296.466583 
	C526.518372,293.652924 528.349243,290.674561 529.659607,287.185699 
	C523.935913,293.413696 518.114319,299.554962 512.505859,305.884979 
	C489.971252,331.318451 467.502869,356.810608 445.008728,382.279907 
	C443.793060,383.656372 442.702667,385.368805 440.554871,383.471069 
	C438.498352,381.654053 438.600922,379.943054 440.320953,377.903870 
	C449.450989,367.079865 458.610168,356.278259 467.587616,345.328186 
	C487.232574,321.366730 506.578278,297.156921 526.439575,273.377075 
	C536.560425,261.259369 546.482788,248.812912 559.634277,239.625656 
	C560.888184,238.749741 561.314819,237.874695 561.022949,236.300003 
	C559.625854,228.762115 561.626831,221.745682 564.748596,215.000061 
	C570.063232,203.515778 575.601624,192.134201 580.839600,180.615646 
	C583.187195,175.453369 584.541138,169.979126 584.985901,164.244766 
	C585.815186,153.551376 581.352051,145.951340 572.143616,140.818390 
	C561.883118,135.098999 550.476196,133.396332 539.165833,131.523056 
	C526.936218,129.497543 514.610962,129.689240 501.836060,131.053802 
M774.108459,215.133423 
	C771.716614,202.381027 769.217957,189.647156 766.999878,176.864609 
	C766.359497,173.174026 764.588928,170.446472 762.059021,167.896057 
	C750.764771,156.510452 738.476501,146.291260 725.702454,136.630707 
	C715.962219,129.264526 706.016724,122.205864 694.957275,115.564392 
	C698.694763,122.145302 703.704956,126.511192 708.893005,130.722015 
	C715.230103,135.865479 721.524902,141.061005 727.862000,146.204575 
	C729.612854,147.625671 731.442444,149.156677 730.298401,151.614761 
	C728.239197,156.039444 730.748291,158.924606 733.367798,161.776321 
	C738.439941,167.298141 743.671997,172.674011 748.703247,178.232193 
	C753.402039,183.422958 758.083435,188.697388 760.642334,195.350784 
	C761.521790,197.637527 763.883545,200.544281 760.880188,202.557220 
	C758.300720,204.286087 756.377380,201.474335 754.469727,200.021561 
	C753.148621,199.015549 751.993835,197.793243 750.746765,196.687790 
	C741.002930,188.050491 732.148560,178.532059 723.311462,168.997009 
	C705.761047,150.060562 688.860046,130.513000 669.023071,113.793785 
	C637.174438,86.950836 601.058472,72.280907 558.925964,74.359238 
	C533.335510,75.621582 508.521545,81.222588 483.943451,88.084770 
	C468.858185,92.296555 453.691559,96.313324 440.008484,104.266670 
	C434.686523,107.360077 429.284851,110.599419 427.226257,117.004532 
	C425.314178,122.953804 428.541138,126.566551 434.588287,125.250511 
	C448.240234,122.279457 461.875427,119.231400 475.518097,116.217720 
	C494.045074,112.125076 512.605957,107.990570 531.579529,106.843842 
	C555.418457,105.403076 578.728577,109.204018 601.571411,115.849243 
	C614.252014,119.538162 626.519592,124.287094 637.168091,132.410934 
	C642.117371,136.186844 642.465576,138.254990 639.048950,142.700409 
	C634.383972,148.770096 632.942993,149.172195 627.822510,145.202179 
	C622.921570,141.402359 617.556519,138.384674 612.167969,135.395767 
	C597.119324,127.048645 574.605957,121.434135 560.594727,122.447052 
	C571.165344,126.441460 581.366150,131.376892 590.717224,137.838028 
	C599.818237,144.126434 608.162903,151.250015 612.950439,161.657516 
	C614.997620,166.107880 614.869141,170.093216 611.987488,174.305389 
	C605.549072,183.716568 597.661377,191.830002 589.857483,200.039169 
	C583.659729,206.558746 577.439331,213.045074 572.190918,220.406708 
	C569.558533,224.098907 569.820923,226.693726 573.439758,229.715332 
	C597.610718,249.897278 621.632629,270.257690 645.725647,290.533173 
	C646.948120,291.561981 647.963196,293.087311 650.272400,292.906097 
	C652.868408,289.759583 655.444153,286.281311 658.378845,283.138092 
	C678.678955,261.394958 703.743958,256.756226 731.626892,263.367004 
	C757.349060,269.465363 779.328979,282.710785 798.901611,300.124207 
	C801.870789,302.765778 803.765442,302.805237 806.243469,299.916199 
	C809.605652,295.996338 813.279907,292.338745 816.552856,288.349243 
	C819.132324,285.204987 822.400452,282.452301 823.672546,277.949402 
	C798.305725,264.290405 780.448120,244.739792 774.108459,215.133423 
M806.104919,326.452881 
	C813.268738,335.035492 821.456970,342.633392 829.337830,350.522308 
	C833.598267,354.787109 835.710083,354.911377 840.584351,351.089203 
	C850.883606,343.013062 859.605408,333.466736 866.793640,322.498535 
	C868.426697,320.006683 867.972595,318.402893 865.921631,316.513306 
	C859.922363,310.986176 854.099182,305.268219 848.121033,299.717682 
	C844.257080,296.130035 840.649536,292.208679 836.122070,289.468506 
	C835.466187,289.869354 834.943481,290.036163 834.647827,290.391754 
	C825.707764,301.145691 816.640686,311.786469 806.917664,321.850433 
	C805.840637,322.965240 804.982422,324.187225 806.104919,326.452881 
M626.038330,302.987366 
	C626.449097,301.382202 628.835083,299.467072 626.501343,298.189331 
	C619.841187,294.542847 614.033081,289.691772 607.020081,284.082886 
	C607.914368,297.796448 610.403748,309.445953 616.478333,320.170898 
	C617.369263,321.743896 618.422485,323.648376 620.470825,323.519989 
	C622.713806,323.379395 623.584473,321.265656 624.445374,319.464203 
	C625.391357,317.484833 625.727295,315.383301 625.696655,313.175537 
	C625.652893,310.025116 625.772827,306.872406 626.038330,302.987366 
M774.780273,325.160126 
	C778.800415,325.310089 780.688660,321.974518 783.314209,319.878479 
	C784.412903,319.001434 784.267761,317.764709 783.367493,316.783966 
	C776.203552,308.979248 772.304443,299.004761 765.964722,290.659637 
	C763.631348,287.588226 763.202637,287.360352 759.947205,286.072266 
	C764.629639,294.371246 769.845947,302.177460 771.705200,311.501526 
	C772.578918,315.883331 773.434448,320.268768 774.780273,325.160126 
M890.576355,295.222778 
	C892.125061,290.447601 890.121155,287.024689 886.660217,283.857208 
	C880.102722,277.855774 872.853455,272.840210 864.488159,267.160156 
	C873.243652,279.112244 881.794861,289.630005 887.664978,302.090363 
	C890.008911,300.290283 889.527649,297.846954 890.576355,295.222778 
M855.254272,275.212341 
	C853.641357,272.404266 852.028503,269.596191 850.323914,266.628479 
	C842.128601,276.720184 842.128784,277.821289 851.502930,285.232727 
	C854.435242,287.551025 856.924744,290.960846 861.869446,291.170593 
	C861.025818,285.208862 858.152283,280.594879 855.254272,275.212341 
M777.929993,202.895905 
	C778.336243,203.589264 778.587036,204.429428 779.542969,204.603577 
	C784.679077,195.613541 783.889771,191.345276 775.675049,185.623459 
	C774.864685,191.531860 776.182434,196.916245 777.929993,202.895905 
M785.211792,369.273315 
	C784.818359,369.068024 784.408203,368.588593 784.054749,369.297119 
	C784.003174,369.400543 784.095581,369.649414 784.199951,369.746521 
	C789.219666,374.417114 793.948486,379.504364 800.801758,381.575195 
	C795.648743,377.707397 790.122253,374.333496 785.211792,369.273315 
z"/>
<path fill="#000000" opacity="1.000000" stroke="none" 
	d="
M782.745972,879.256958 
	C790.845093,887.984314 789.799011,894.314697 779.387939,898.753784 
	C764.256592,905.205505 749.213501,911.966614 732.745850,914.566284 
	C702.755005,919.300781 675.606018,912.632446 651.382324,894.362366 
	C646.415894,890.616577 642.448853,885.878113 641.120605,879.539673 
	C640.517578,876.662109 638.334045,875.091248 636.581177,873.147522 
	C633.280273,869.487427 629.907776,865.891663 626.969116,861.014648 
	C629.762024,861.183655 630.921814,862.648132 632.230774,863.762207 
	C654.106506,882.380859 679.558655,891.266541 708.110229,890.508850 
	C729.945190,889.929382 750.860962,884.590210 770.666748,875.287537 
	C775.983337,872.790405 779.041992,876.207153 782.745972,879.256958 
z"/>
<path fill="#000000" opacity="1.000000" stroke="none" 
	d="
M841.079712,783.089355 
	C846.608521,775.545166 847.180054,766.644836 849.774902,758.446533 
	C850.410278,756.439270 850.400330,754.149963 852.580139,752.301025 
	C857.740845,754.483643 860.111389,759.607605 860.400452,764.034973 
	C861.227783,776.707825 862.188110,789.670959 856.576416,801.732910 
	C852.307312,810.909119 845.263794,812.749756 837.167114,806.298645 
	C830.782471,801.211670 824.274475,796.355713 817.608215,791.659180 
	C811.684021,787.485535 808.841309,780.486206 803.536621,775.598145 
	C798.565247,771.017273 794.421997,765.758301 787.570374,763.404968 
	C780.329163,760.917786 778.026794,757.330505 778.815247,751.749512 
	C783.622131,753.614929 787.389832,756.876343 791.381348,759.730530 
	C802.621704,767.767822 813.744873,775.971313 825.067932,783.889587 
	C831.286011,788.237915 835.581360,787.890198 841.079712,783.089355 
z"/>
<path fill="#000000" opacity="1.000000" stroke="none" 
	d="
M78.944901,273.924133 
	C76.679443,269.448975 74.602394,265.288544 72.525352,261.128082 
	C72.878029,260.925171 73.230713,260.722229 73.583389,260.519318 
	C83.776115,273.749542 92.971474,287.754364 104.155350,300.218231 
	C115.357788,312.702789 127.801132,323.732666 142.132782,332.761993 
	C140.787872,334.067474 139.782898,333.901245 139.235184,333.417664 
	C135.090256,329.758392 129.173080,328.837799 125.354164,324.943359 
	C115.797379,315.197510 104.791130,306.924194 95.975548,296.479614 
	C89.985847,289.383057 84.721840,281.674011 78.944901,273.924133 
z"/>
<path fill="#000000" opacity="1.000000" stroke="none" 
	d="
M176.201447,341.652283 
	C182.758530,342.850250 189.002060,343.469116 195.345032,345.497253 
	C180.287659,349.649780 159.028946,348.361023 154.692932,338.204498 
	C162.123398,338.258667 168.856430,340.633545 176.201447,341.652283 
z"/>
<path fill="#000000" opacity="1.000000" stroke="none" 
	d="
M328.958374,427.054932 
	C333.238373,431.350616 337.259460,435.399902 341.280579,439.449219 
	C340.973145,439.745300 340.665710,440.041351 340.358307,440.337433 
	C324.654297,430.356537 313.925507,415.156952 300.985046,402.255676 
	C310.573669,410.061188 320.157135,417.848328 328.958374,427.054932 
z"/>
<path fill="#000000" opacity="1.000000" stroke="none" 
	d="
M160.182983,143.091431 
	C159.306015,142.352097 158.648300,141.824005 159.231461,140.151138 
	C169.502182,144.282837 179.626999,148.475006 188.227539,155.682938 
	C176.814194,156.301651 168.562057,149.939499 160.182983,143.091431 
z"/>
<path fill="#000000" opacity="1.000000" stroke="none" 
	d="
M202.453094,912.561523 
	C199.903351,914.128906 197.710922,915.619995 195.376175,916.838440 
	C192.233459,918.478333 190.059189,917.496704 188.721878,913.437500 
	C194.718323,911.650696 200.565094,909.908508 206.955704,908.004211 
	C206.372528,910.929260 204.070786,911.158264 202.453094,912.561523 
z"/>
<path fill="#000000" opacity="1.000000" stroke="none" 
	d="
M272.687561,376.290405 
	C275.172516,378.425964 277.385773,380.331299 279.599030,382.236633 
	C268.902740,380.267334 263.805237,371.138733 256.743744,364.487335 
	C261.967804,368.344940 267.191833,372.202545 272.687561,376.290405 
z"/>
<path fill="#000000" opacity="1.000000" stroke="none" 
	d="
M699.179810,786.470947 
	C699.901428,785.242859 699.675781,783.773987 701.903992,783.305237 
	C701.493896,787.730774 702.597717,791.847412 703.423889,796.067993 
	C699.164429,794.154541 696.992737,791.426575 699.179810,786.470947 
z"/>
<path fill="#000000" opacity="1.000000" stroke="none" 
	d="
M355.801849,454.184906 
	C350.816071,455.662933 348.727356,453.804565 346.616943,445.786987 
	C350.978302,447.388794 353.377258,450.618439 355.801849,454.184906 
z"/>
<path fill="#000000" opacity="1.000000" stroke="none" 
	d="
M215.160614,349.817566 
	C211.308655,350.243286 208.065277,349.809326 204.598648,346.967743 
	C209.623932,345.236664 213.595657,346.624969 217.558640,347.273956 
	C217.850159,349.187836 216.572418,349.358063 215.160614,349.817566 
z"/>
<path fill="#000000" opacity="1.000000" stroke="none" 
	d="
M243.728088,355.040344 
	C245.046738,356.128418 246.771713,356.465668 246.585236,358.898468 
	C242.468338,358.136444 239.164948,356.464966 235.897049,352.803833 
	C239.491180,352.107300 241.396255,353.721741 243.728088,355.040344 
z"/>
<path fill="#000000" opacity="1.000000" stroke="none" 
	d="
M550.541992,570.462280 
	C575.641052,595.389526 598.023621,622.264404 620.487488,649.065125 
	C624.016296,653.275146 627.433533,657.581299 630.822693,661.905396 
	C636.832336,669.573059 644.047424,675.425598 654.039429,676.871460 
	C649.222229,691.547974 632.081848,697.231384 620.786133,688.146851 
	C610.867188,680.169617 603.487976,669.709351 595.129456,660.235413 
	C561.086304,621.649597 527.235229,582.894226 493.359924,544.160583 
	C474.832245,522.975769 456.388031,501.717865 437.939545,480.463928 
	C436.473419,478.774841 433.974213,476.721222 436.172485,474.514496 
	C438.393341,472.285034 440.857300,474.344177 442.739105,475.955414 
	C454.673248,486.173981 464.593140,498.338440 475.239319,509.799469 
	C483.968231,519.196533 492.743805,528.544250 501.998260,537.431152 
	C504.562958,539.893921 507.276337,541.519104 511.093628,541.957642 
	C516.988892,542.634949 521.931213,546.029602 526.701965,549.424988 
	C535.285461,555.533752 542.787598,562.877075 550.541992,570.462280 
z"/>
<path fill="#000000" opacity="1.000000" stroke="none" 
	d="
M619.803162,241.706024 
	C618.591125,236.720734 617.393799,232.097961 618.667297,227.004929 
	C636.888489,231.348343 652.905579,226.515732 668.033691,217.329605 
	C670.765320,215.670883 673.126343,213.562164 675.288513,211.244339 
	C682.412598,203.607483 682.483154,197.075027 675.378906,189.319016 
	C671.921326,185.544174 669.396606,181.353409 668.235779,176.351089 
	C667.612976,173.667313 667.664490,171.160706 669.589050,168.771072 
	C670.447144,169.100616 671.189392,169.174515 671.616699,169.580154 
	C689.621826,186.673172 710.927429,199.952118 727.875122,218.267288 
	C730.589844,221.200989 733.604980,223.873642 736.154236,226.938934 
	C739.003418,230.364899 738.201050,232.235992 733.837769,232.894089 
	C729.232178,233.588745 724.575684,233.965759 719.987122,234.749115 
	C707.053223,236.957230 697.801208,245.700089 687.856995,253.161453 
	C681.999084,257.556793 676.316711,262.185608 670.478760,266.608368 
	C668.077148,268.427856 665.476562,269.992859 662.307434,267.947449 
	C661.824097,268.850739 661.454956,269.396545 661.223389,269.995483 
	C658.529602,276.960358 658.094055,277.185486 652.502747,272.348785 
	C641.293945,262.652679 630.132385,252.894104 619.803162,241.706024 
M699.632324,228.119385 
	C701.366882,226.441650 703.937012,225.492859 704.456909,222.772614 
	C697.479126,215.244339 687.020447,219.029572 681.337952,225.764145 
	C671.815186,237.049942 666.740417,250.486954 662.658630,265.547180 
	C673.661865,251.046738 686.367737,239.799393 699.632324,228.119385 
z"/>
<path fill="#000000" opacity="1.000000" stroke="none" 
	d="
M601.884399,217.166290 
	C611.737000,205.824188 622.922607,196.276260 632.456726,185.119675 
	C638.056335,178.567169 643.049805,171.604599 648.120178,163.424774 
	C651.089111,170.417358 652.756165,176.178207 648.789673,182.539459 
	C639.653564,197.191833 626.978638,208.436447 614.001404,219.422211 
	C611.721985,221.351883 609.554260,223.474655 606.750122,224.679123 
	C604.814087,225.510696 602.748108,227.111359 600.757629,225.210861 
	C598.633240,223.182480 599.965698,220.907913 600.946350,218.788635 
	C601.155212,218.337158 601.439270,217.920471 601.884399,217.166290 
z"/>
</svg>